<svg width="20" height="20" viewBox="0 0 20 20" fill="none" xmlns="http://www.w3.org/2000/svg">
<path d="M18.46 0H1.41556C0.634562 0 0 0.643438 0 1.43331V18.4467C0 19.2366 0.634562 19.88 1.41556 19.88H18.46C19.241 19.88 19.88 19.2366 19.88 18.4467V1.43331C19.88 0.643438 19.241 0 18.46 0ZM6.00837 17.04H3.06187V7.55262H6.01281V17.04H6.00837ZM4.53512 6.25688C3.58994 6.25688 2.82669 5.48919 2.82669 4.54844C2.82669 3.60769 3.58994 2.84 4.53512 2.84C5.47587 2.84 6.24356 3.60769 6.24356 4.54844C6.24356 5.49362 5.48031 6.25688 4.53512 6.25688ZM17.0533 17.04H14.1068V12.425C14.1068 11.3245 14.0846 9.90894 12.5759 9.90894C11.0405 9.90894 10.8053 11.1071 10.8053 12.3451V17.04H7.85881V7.55262H10.6855V8.84837H10.7254C11.1204 8.10287 12.0833 7.31744 13.5166 7.31744C16.4986 7.31744 17.0533 9.28325 17.0533 11.8392V17.04Z" fill="#F6BD60" fill-opacity="0.7"/>
</svg>
