<svg width="25" height="19" viewBox="0 0 25 19" fill="none" xmlns="http://www.w3.org/2000/svg">
<path d="M24.5264 6.19128C24.7168 6.03992 25 6.18152 25 6.42078V16.4061C25 17.7001 23.9502 18.7499 22.6562 18.7499H2.34375C1.0498 18.7499 0 17.7001 0 16.4061V6.42566C0 6.18152 0.27832 6.0448 0.473633 6.19617C1.56738 7.04578 3.01758 8.12488 7.99805 11.743C9.02832 12.495 10.7666 14.077 12.5 14.0673C14.2432 14.0819 16.0156 12.4657 17.0068 11.743C21.9873 8.12488 23.4326 7.04089 24.5264 6.19128ZM12.5 12.4999C13.6328 12.5194 15.2637 11.0741 16.084 10.4784C22.5635 5.77625 23.0566 5.36609 24.5508 4.19421C24.834 3.97449 25 3.63269 25 3.27136V2.34363C25 1.04968 23.9502 -0.00012207 22.6562 -0.00012207H2.34375C1.0498 -0.00012207 0 1.04968 0 2.34363V3.27136C0 3.63269 0.166016 3.9696 0.449219 4.19421C1.94336 5.36121 2.43652 5.77625 8.91602 10.4784C9.73633 11.0741 11.3672 12.5194 12.5 12.4999Z" fill="url(#paint0_linear_0_196)"/>
<defs>
<linearGradient id="paint0_linear_0_196" x1="12.5" y1="-0.00012207" x2="12.5" y2="18.7499" gradientUnits="userSpaceOnUse">
<stop stop-color="#783B9F"/>
<stop offset="1" stop-color="#2F3987"/>
</linearGradient>
</defs>
</svg>
