<svg width="25" height="25" viewBox="0 0 25 25" fill="none" xmlns="http://www.w3.org/2000/svg">
<path d="M24.287 17.6656L18.8183 15.3218C18.5847 15.2223 18.325 15.2013 18.0785 15.262C17.8319 15.3228 17.6117 15.462 17.4511 15.6587L15.0292 18.6177C11.2283 16.8256 8.16947 13.7668 6.37738 9.96587L9.33636 7.54399C9.53347 7.38368 9.67298 7.16351 9.73378 6.91682C9.79457 6.67013 9.77333 6.41035 9.67328 6.1768L7.32953 0.708053C7.21972 0.4563 7.02551 0.250751 6.78038 0.126852C6.53526 0.00295173 6.25458 -0.0315334 5.98676 0.0293424L0.90863 1.20122C0.650412 1.26085 0.420029 1.40624 0.255083 1.61366C0.0901368 1.82109 0.000367763 2.07829 0.000427276 2.34331C0.000427276 14.8677 10.1518 24.9996 22.6567 24.9996C22.9218 24.9997 23.1791 24.91 23.3866 24.7451C23.5941 24.5801 23.7396 24.3497 23.7993 24.0914L24.9711 19.0132C25.0316 18.7441 24.9964 18.4623 24.8715 18.2163C24.7467 17.9704 24.54 17.7756 24.287 17.6656Z" fill="url(#paint0_linear_0_194)"/>
<defs>
<linearGradient id="paint0_linear_0_194" x1="12.5002" y1="0" x2="12.5002" y2="24.9996" gradientUnits="userSpaceOnUse">
<stop stop-color="#783B9F"/>
<stop offset="1" stop-color="#2F3987"/>
</linearGradient>
</defs>
</svg>
